<?xml version="1.0" encoding="UTF-8" standalone="no"?>
<!DOCTYPE svg PUBLIC "-//W3C//DTD SVG 1.1//EN"
 "http://www.w3.org/Graphics/SVG/1.1/DTD/svg11.dtd">
<!-- Generated by graphviz version 2.28.0 (20120127.1217)
 -->
<!-- Title: models_diagram Pages: 1 -->
<svg width="1789pt" height="706pt"
 viewBox="0.00 0.00 1789.00 706.00" xmlns="http://www.w3.org/2000/svg" xmlns:xlink="http://www.w3.org/1999/xlink">
<g id="graph1" class="graph" transform="scale(1 1) rotate(0) translate(4 702)">
<title>models_diagram</title>
<polygon fill="white" stroke="white" points="-4,5 -4,-702 1786,-702 1786,5 -4,5"/>
<!-- _diagram_info -->
<g id="node1" class="node"><title>_diagram_info</title>
<text text-anchor="start" x="7.5" y="-683.6" font-family="Times,serif" font-size="13.00">Models diagram</text>
<text text-anchor="start" x="7.5" y="-669.6" font-family="Times,serif" font-size="13.00">Date: Feb 03 2012 &#45; 16:07</text>
<text text-anchor="start" x="7.5" y="-655.6" font-family="Times,serif" font-size="13.00">Migration version: 20120203142015</text>
<text text-anchor="start" x="7.5" y="-641.6" font-family="Times,serif" font-size="13.00">Generated by RailRoady 1.0.5</text>
<text text-anchor="start" x="7.5" y="-627.6" font-family="Times,serif" font-size="13.00">http://railroady.prestonlee.com</text>
</g>
<!-- AppSettings -->
<g id="node2" class="node"><title>AppSettings</title>
<ellipse fill="none" stroke="black" cx="265" cy="-550" rx="57.2927" ry="18"/>
<text text-anchor="middle" x="265" y="-546.3" font-family="Times,serif" font-size="14.00">AppSettings</text>
</g>
<!-- Copyright -->
<g id="node3" class="node"><title>Copyright</title>
<ellipse fill="none" stroke="black" cx="373" cy="-659" rx="50.0684" ry="18"/>
<text text-anchor="middle" x="373" y="-655.3" font-family="Times,serif" font-size="14.00">Copyright</text>
</g>
<!-- Copyright&#45;&gt;Copyright -->
<g id="edge4" class="edge"><title>Copyright&#45;&gt;Copyright</title>
<path fill="none" stroke="black" d="M418.894,-670.921C431.435,-670.323 441,-666.35 441,-659 441,-652.066 432.487,-648.137 420.994,-647.213"/>
<ellipse fill="none" stroke="black" cx="414.761" cy="-670.888" rx="4" ry="4"/>
<polygon fill="black" stroke="black" points="420.761,-647.212 410.792,-642.644 415.761,-647.178 410.761,-647.144 410.761,-647.144 410.761,-647.144 415.761,-647.178 410.73,-651.643 420.761,-647.212 420.761,-647.212"/>
<text text-anchor="middle" x="465" y="-655.3" font-family="Times,serif" font-size="14.00">children</text>
</g>
<!-- EditSession -->
<g id="node4" class="node"><title>EditSession</title>
<ellipse fill="none" stroke="black" cx="1113" cy="-550" rx="54.3924" ry="18"/>
<text text-anchor="middle" x="1113" y="-546.3" font-family="Times,serif" font-size="14.00">EditSession</text>
</g>
<!-- FullText -->
<g id="node5" class="node"><title>FullText</title>
<ellipse fill="none" stroke="black" cx="1228" cy="-550" rx="42.3701" ry="18"/>
<text text-anchor="middle" x="1228" y="-546.3" font-family="Times,serif" font-size="14.00">FullText</text>
</g>
<!-- Group -->
<g id="node6" class="node"><title>Group</title>
<ellipse fill="none" stroke="black" cx="543" cy="-659" rx="35.6194" ry="18"/>
<text text-anchor="middle" x="543" y="-655.3" font-family="Times,serif" font-size="14.00">Group</text>
</g>
<!-- Grouppermission -->
<g id="node7" class="node"><title>Grouppermission</title>
<ellipse fill="none" stroke="black" cx="849" cy="-550" rx="76.5394" ry="18"/>
<text text-anchor="middle" x="849" y="-546.3" font-family="Times,serif" font-size="14.00">Grouppermission</text>
</g>
<!-- Group&#45;&gt;Grouppermission -->
<g id="edge6" class="edge"><title>Group&#45;&gt;Grouppermission</title>
<path fill="none" stroke="black" d="M579.593,-645.864C605.669,-637.591 641.684,-626.922 674,-620 730.174,-607.967 751.122,-628.679 802,-602 813.547,-595.945 823.734,-585.888 831.646,-576.298"/>
<ellipse fill="none" stroke="black" cx="575.644" cy="-647.128" rx="4.00001" ry="4.00001"/>
<polygon fill="black" stroke="black" points="831.869,-576.01 841.549,-570.857 834.93,-572.056 837.991,-568.103 837.991,-568.103 837.991,-568.103 834.93,-572.056 834.432,-565.348 831.869,-576.01 831.869,-576.01"/>
</g>
<!-- MetaDepartment -->
<g id="node18" class="node"><title>MetaDepartment</title>
<ellipse fill="none" stroke="black" cx="467" cy="-550" rx="73.1654" ry="18"/>
<text text-anchor="middle" x="467" y="-546.3" font-family="Times,serif" font-size="14.00">MetaDepartment</text>
</g>
<!-- Group&#45;&gt;MetaDepartment -->
<g id="edge50" class="edge"><title>Group&#45;&gt;MetaDepartment</title>
<path fill="none" stroke="black" d="M531.457,-641.749C517.339,-621.872 493.547,-588.376 479.155,-568.114"/>
</g>
<!-- User -->
<g id="node31" class="node"><title>User</title>
<ellipse fill="none" stroke="black" cx="726" cy="-550" rx="28.3955" ry="18"/>
<text text-anchor="middle" x="726" y="-546.3" font-family="Times,serif" font-size="14.00">User</text>
</g>
<!-- Group&#45;&gt;User -->
<g id="edge8" class="edge"><title>Group&#45;&gt;User</title>
<path fill="none" stroke="black" d="M574.463,-639.604C608.91,-619.463 663.679,-587.439 697.083,-567.908"/>
<polygon fill="black" stroke="black" points="574.072,-639.832 563.168,-640.995 569.756,-642.356 565.439,-644.88 565.439,-644.88 565.439,-644.88 569.756,-642.356 567.711,-648.764 574.072,-639.832 574.072,-639.832"/>
<polygon fill="black" stroke="black" points="697.271,-567.798 708.175,-566.635 701.587,-565.274 705.903,-562.751 705.903,-562.751 705.903,-562.751 701.587,-565.274 703.632,-558.866 697.271,-567.798 697.271,-567.798"/>
</g>
<!-- Keyword -->
<g id="node8" class="node"><title>Keyword</title>
<ellipse fill="none" stroke="black" cx="1088" cy="-659" rx="46.1964" ry="18"/>
<text text-anchor="middle" x="1088" y="-655.3" font-family="Times,serif" font-size="14.00">Keyword</text>
</g>
<!-- MediaEntry -->
<g id="node9" class="node"><title>MediaEntry</title>
<ellipse fill="none" stroke="black" cx="712" cy="-402" rx="55.3436" ry="18"/>
<text text-anchor="middle" x="712" y="-398.3" font-family="Times,serif" font-size="14.00">MediaEntry</text>
</g>
<!-- MediaEntryIncomplete -->
<g id="node10" class="node"><title>MediaEntryIncomplete</title>
<ellipse fill="none" stroke="black" cx="537" cy="-328" rx="96.2631" ry="18"/>
<text text-anchor="middle" x="537" y="-324.3" font-family="Times,serif" font-size="14.00">MediaEntryIncomplete</text>
</g>
<!-- MediaEntry&#45;&gt;MediaEntryIncomplete -->
<g id="edge16" class="edge"><title>MediaEntry&#45;&gt;MediaEntryIncomplete</title>
<path fill="none" stroke="black" d="M679.084,-387.457C649.48,-375.277 605.996,-357.387 574.94,-344.61"/>
</g>
<!-- MediaSet -->
<g id="node13" class="node"><title>MediaSet</title>
<ellipse fill="none" stroke="black" cx="791" cy="-328" rx="46.2191" ry="18"/>
<text text-anchor="middle" x="791" y="-324.3" font-family="Times,serif" font-size="14.00">MediaSet</text>
</g>
<!-- MediaEntry&#45;&gt;MediaSet -->
<g id="edge12" class="edge"><title>MediaEntry&#45;&gt;MediaSet</title>
<path fill="none" stroke="black" d="M737.383,-377.866C746.554,-369.508 756.894,-360.084 766.029,-351.758"/>
<polygon fill="black" stroke="black" points="737.317,-377.926 726.895,-381.336 733.622,-381.294 729.926,-384.662 729.926,-384.662 729.926,-384.662 733.622,-381.294 732.958,-387.988 737.317,-377.926 737.317,-377.926"/>
<polygon fill="black" stroke="black" points="766.297,-351.515 776.719,-348.104 769.992,-348.146 773.688,-344.778 773.688,-344.778 773.688,-344.778 769.992,-348.146 770.656,-341.453 766.297,-351.515 766.297,-351.515"/>
</g>
<!-- Snapshot -->
<g id="node27" class="node"><title>Snapshot</title>
<ellipse fill="none" stroke="black" cx="1058" cy="-328" rx="45.244" ry="18"/>
<text text-anchor="middle" x="1058" y="-324.3" font-family="Times,serif" font-size="14.00">Snapshot</text>
</g>
<!-- MediaEntry&#45;&gt;Snapshot -->
<g id="edge10" class="edge"><title>MediaEntry&#45;&gt;Snapshot</title>
<path fill="none" stroke="black" d="M769.102,-392.168C828.076,-382.589 922.575,-365.962 1003,-346 1006.66,-345.092 1010.43,-344.082 1014.21,-343.021"/>
<ellipse fill="none" stroke="black" cx="764.97" cy="-392.835" rx="4.00001" ry="4.00001"/>
<polygon fill="black" stroke="black" points="1014.54,-342.926 1025.4,-344.444 1019.34,-341.525 1024.13,-340.124 1024.13,-340.124 1024.13,-340.124 1019.34,-341.525 1022.87,-335.805 1014.54,-342.926 1014.54,-342.926"/>
</g>
<!-- MediaFile -->
<g id="node11" class="node"><title>MediaFile</title>
<ellipse fill="none" stroke="black" cx="421" cy="-476" rx="48.1437" ry="18"/>
<text text-anchor="middle" x="421" y="-472.3" font-family="Times,serif" font-size="14.00">MediaFile</text>
</g>
<!-- MediaFile&#45;&gt;MediaEntry -->
<g id="edge18" class="edge"><title>MediaFile&#45;&gt;MediaEntry</title>
<path fill="none" stroke="black" d="M465.265,-461.854C491.04,-454.408 524.227,-445.177 554,-438 592.809,-428.645 603.041,-428.712 642,-420 647.708,-418.724 653.666,-417.346 659.593,-415.947"/>
<ellipse fill="none" stroke="black" cx="461.357" cy="-462.988" rx="4.00001" ry="4.00001"/>
<polygon fill="black" stroke="black" points="659.761,-415.907 670.532,-417.964 664.624,-414.747 669.488,-413.587 669.488,-413.587 669.488,-413.587 664.624,-414.747 668.444,-409.21 659.761,-415.907 659.761,-415.907"/>
</g>
<!-- Preview -->
<g id="node26" class="node"><title>Preview</title>
<ellipse fill="none" stroke="black" cx="409" cy="-402" rx="41.394" ry="18"/>
<text text-anchor="middle" x="409" y="-398.3" font-family="Times,serif" font-size="14.00">Preview</text>
</g>
<!-- MediaFile&#45;&gt;Preview -->
<g id="edge20" class="edge"><title>MediaFile&#45;&gt;Preview</title>
<path fill="none" stroke="black" d="M416.799,-449.792C415.763,-443.58 414.649,-436.896 413.596,-430.579"/>
<ellipse fill="none" stroke="black" cx="417.499" cy="-453.991" rx="4.00001" ry="4.00001"/>
<polygon fill="black" stroke="black" points="413.551,-430.305 416.346,-419.701 412.729,-425.373 411.907,-420.441 411.907,-420.441 411.907,-420.441 412.729,-425.373 407.468,-421.181 413.551,-430.305 413.551,-430.305"/>
</g>
<!-- MediaResource -->
<g id="node12" class="node"><title>MediaResource</title>
<ellipse fill="none" stroke="black" cx="954" cy="-659" rx="68.3417" ry="18"/>
<text text-anchor="middle" x="954" y="-655.3" font-family="Times,serif" font-size="14.00">MediaResource</text>
</g>
<!-- MediaResource&#45;&gt;EditSession -->
<g id="edge24" class="edge"><title>MediaResource&#45;&gt;EditSession</title>
<path fill="none" stroke="black" d="M987.426,-638.077C1004.55,-627.65 1025.62,-614.484 1044,-602 1057.52,-592.821 1072.12,-582.145 1084.39,-572.94"/>
<ellipse fill="none" stroke="black" cx="983.767" cy="-640.295" rx="4.00002" ry="4.00002"/>
<polygon fill="black" stroke="black" points="1084.5,-572.863 1095.19,-570.43 1088.49,-569.85 1092.48,-566.838 1092.48,-566.838 1092.48,-566.838 1088.49,-569.85 1089.77,-563.247 1084.5,-572.863 1084.5,-572.863"/>
</g>
<!-- MediaResource&#45;&gt;FullText -->
<g id="edge28" class="edge"><title>MediaResource&#45;&gt;FullText</title>
<path fill="none" stroke="black" d="M990.972,-638.91C1003.82,-632.568 1018.41,-625.682 1032,-620 1060.69,-608.007 1139.63,-580.874 1188.13,-564.432"/>
<ellipse fill="none" stroke="black" cx="987.213" cy="-640.784" rx="4.00002" ry="4.00002"/>
<ellipse fill="black" stroke="black" cx="1192.14" cy="-563.073" rx="4.00001" ry="4.00001"/>
</g>
<!-- MediaResource&#45;&gt;Grouppermission -->
<g id="edge32" class="edge"><title>MediaResource&#45;&gt;Grouppermission</title>
<path fill="none" stroke="black" d="M944.919,-633.273C938.407,-618.18 928.413,-599.295 915,-586 909.236,-580.286 902.346,-575.275 895.225,-570.963"/>
<ellipse fill="none" stroke="black" cx="946.483" cy="-637.072" rx="4.00002" ry="4.00002"/>
<polygon fill="black" stroke="black" points="894.872,-570.766 888.349,-561.951 890.511,-568.321 886.149,-565.876 886.149,-565.876 886.149,-565.876 890.511,-568.321 883.949,-569.802 894.872,-570.766 894.872,-570.766"/>
</g>
<!-- MediaResource&#45;&gt;MediaEntry -->
<g id="edge14" class="edge"><title>MediaResource&#45;&gt;MediaEntry</title>
<path fill="none" stroke="black" d="M896.513,-649.152C851.391,-640.825 787.765,-625.983 736,-602 704.466,-587.39 597.012,-513.747 587,-494 579.765,-479.729 578.256,-471.4 587,-458 596.976,-442.711 640.185,-425.913 673.032,-414.955"/>
</g>
<!-- MediaResource&#45;&gt;MediaSet -->
<g id="edge44" class="edge"><title>MediaResource&#45;&gt;MediaSet</title>
<path fill="none" stroke="black" d="M964.183,-640.869C975.439,-620.275 992,-584.315 992,-551 992,-551 992,-551 992,-401 992,-367.547 892.076,-345.474 833.136,-335.364"/>
</g>
<!-- MetaDatum -->
<g id="node17" class="node"><title>MetaDatum</title>
<ellipse fill="none" stroke="black" cx="1147" cy="-92" rx="54.3924" ry="18"/>
<text text-anchor="middle" x="1147" y="-88.3" font-family="Times,serif" font-size="14.00">MetaDatum</text>
</g>
<!-- MediaResource&#45;&gt;MetaDatum -->
<g id="edge22" class="edge"><title>MediaResource&#45;&gt;MetaDatum</title>
<path fill="none" stroke="black" d="M989.272,-638.535C1002.39,-631.912 1017.59,-624.943 1032,-620 1147.53,-580.375 1298,-673.135 1298,-551 1298,-551 1298,-551 1298,-165 1298,-123.459 1250.86,-105.861 1209.26,-98.4198"/>
<ellipse fill="none" stroke="black" cx="985.369" cy="-640.545" rx="4.00002" ry="4.00002"/>
<polygon fill="black" stroke="black" points="1209.26,-98.4198 1200.11,-92.3768 1204.32,-97.6193 1199.39,-96.8188 1199.39,-96.8188 1199.39,-96.8188 1204.32,-97.6193 1198.67,-101.261 1209.26,-98.4198 1209.26,-98.4198"/>
</g>
<!-- MediaResource&#45;&gt;Snapshot -->
<g id="edge66" class="edge"><title>MediaResource&#45;&gt;Snapshot</title>
<path fill="none" stroke="black" d="M975.575,-641.649C998.044,-622.585 1030,-588.824 1030,-551 1030,-551 1030,-551 1030,-401 1030,-381.016 1039.49,-359.904 1047.41,-345.747"/>
</g>
<!-- MediaResource&#45;&gt;User -->
<g id="edge26" class="edge"><title>MediaResource&#45;&gt;User</title>
<path fill="none" stroke="black" d="M914.402,-638.262C884.51,-623.51 842.392,-603.036 805,-586 786.519,-577.58 781.562,-576.24 763,-568 761.207,-567.204 759.368,-566.381 757.514,-565.546"/>
<polygon fill="black" stroke="black" points="914.693,-638.406 921.661,-646.873 919.175,-640.623 923.656,-642.84 923.656,-642.84 923.656,-642.84 919.175,-640.623 925.651,-638.806 914.693,-638.406 914.693,-638.406"/>
<polygon fill="black" stroke="black" points="757.367,-565.479 750.125,-557.245 752.815,-563.41 748.263,-561.341 748.263,-561.341 748.263,-561.341 752.815,-563.41 746.401,-565.438 757.367,-565.479 757.367,-565.479"/>
<text text-anchor="middle" x="858" y="-590.3" font-family="Times,serif" font-size="14.00">editors</text>
</g>
<!-- Userpermission -->
<g id="node32" class="node"><title>Userpermission</title>
<ellipse fill="none" stroke="black" cx="894" cy="-476" rx="69.3156" ry="18"/>
<text text-anchor="middle" x="894" y="-472.3" font-family="Times,serif" font-size="14.00">Userpermission</text>
</g>
<!-- MediaResource&#45;&gt;Userpermission -->
<g id="edge30" class="edge"><title>MediaResource&#45;&gt;Userpermission</title>
<path fill="none" stroke="black" d="M953.42,-632.344C952.039,-606.191 947.645,-564.903 934,-532 929.613,-521.421 922.808,-510.962 916.047,-502.052"/>
<ellipse fill="none" stroke="black" cx="953.607" cy="-636.603" rx="4" ry="4"/>
<polygon fill="black" stroke="black" points="915.888,-501.853 913.178,-491.227 912.773,-497.941 909.658,-494.03 909.658,-494.03 909.658,-494.03 912.773,-497.941 906.138,-496.833 915.888,-501.853 915.888,-501.853"/>
</g>
<!-- MediaSet&#45;&gt;MediaSet -->
<g id="edge38" class="edge"><title>MediaSet&#45;&gt;MediaSet</title>
<path fill="none" stroke="black" d="M846.636,-330.693C851.767,-330.136 855,-329.239 855,-328 855,-326.761 851.767,-325.864 846.636,-325.307"/>
<polygon fill="black" stroke="black" points="846.426,-330.706 836.173,-326.816 841.435,-331.007 836.445,-331.308 836.445,-331.308 836.445,-331.308 841.435,-331.007 836.716,-335.8 846.426,-330.706 846.426,-330.706"/>
<polygon fill="black" stroke="black" points="846.426,-325.294 836.716,-320.2 841.435,-324.993 836.445,-324.692 836.445,-324.692 836.445,-324.692 841.435,-324.993 836.173,-329.184 846.426,-325.294 846.426,-325.294"/>
<text text-anchor="middle" x="883.5" y="-324.3" font-family="Times,serif" font-size="14.00">child_sets</text>
</g>
<!-- MediaSet&#45;&gt;MediaSet -->
<g id="edge40" class="edge"><title>MediaSet&#45;&gt;MediaSet</title>
<path fill="none" stroke="black" d="M836.251,-341.202C871.698,-345.192 912,-340.791 912,-328 912,-315.209 871.698,-310.808 836.251,-314.798"/>
<polygon fill="black" stroke="black" points="835.845,-341.146 826.557,-335.318 830.893,-340.461 825.94,-339.775 825.94,-339.775 825.94,-339.775 830.893,-340.461 825.323,-344.233 835.845,-341.146 835.845,-341.146"/>
<polygon fill="black" stroke="black" points="835.845,-314.854 825.323,-311.767 830.893,-315.539 825.94,-316.225 825.94,-316.225 825.94,-316.225 830.893,-315.539 826.557,-320.682 835.845,-314.854 835.845,-314.854"/>
<text text-anchor="middle" x="944" y="-324.3" font-family="Times,serif" font-size="14.00">parent_sets</text>
</g>
<!-- MediaSetArc -->
<g id="node14" class="node"><title>MediaSetArc</title>
<ellipse fill="none" stroke="black" cx="947" cy="-240" rx="59.1941" ry="18"/>
<text text-anchor="middle" x="947" y="-236.3" font-family="Times,serif" font-size="14.00">MediaSetArc</text>
</g>
<!-- MediaSet&#45;&gt;MediaSetArc -->
<g id="edge34" class="edge"><title>MediaSet&#45;&gt;MediaSetArc</title>
<path fill="none" stroke="black" d="M843.946,-322.813C886.418,-318.225 941.151,-309.116 955,-292 960.511,-285.189 960.646,-276.144 958.709,-267.564"/>
<ellipse fill="none" stroke="black" cx="839.88" cy="-323.233" rx="4" ry="4"/>
<polygon fill="black" stroke="black" points="958.661,-267.411 959.975,-256.524 957.17,-262.639 955.679,-257.866 955.679,-257.866 955.679,-257.866 957.17,-262.639 951.384,-259.208 958.661,-267.411 958.661,-267.411"/>
<text text-anchor="middle" x="984.5" y="-280.3" font-family="Times,serif" font-size="14.00">out_arcs</text>
</g>
<!-- MediaSet&#45;&gt;MediaSetArc -->
<g id="edge36" class="edge"><title>MediaSet&#45;&gt;MediaSetArc</title>
<path fill="none" stroke="black" d="M836.545,-315.006C853.944,-309.388 873.543,-301.75 890,-292 893.701,-289.808 908.257,-276.77 921.732,-264.427"/>
<ellipse fill="none" stroke="black" cx="832.542" cy="-316.255" rx="4.00001" ry="4.00001"/>
<polygon fill="black" stroke="black" points="922.091,-264.096 932.497,-260.639 925.771,-260.712 929.451,-257.327 929.451,-257.327 929.451,-257.327 925.771,-260.712 926.405,-254.015 922.091,-264.096 922.091,-264.096"/>
<text text-anchor="middle" x="930" y="-280.3" font-family="Times,serif" font-size="14.00">in_arcs</text>
</g>
<!-- MetaContext -->
<g id="node15" class="node"><title>MetaContext</title>
<ellipse fill="none" stroke="black" cx="799" cy="-240" rx="59.2173" ry="18"/>
<text text-anchor="middle" x="799" y="-236.3" font-family="Times,serif" font-size="14.00">MetaContext</text>
</g>
<!-- MediaSet&#45;&gt;MetaContext -->
<g id="edge42" class="edge"><title>MediaSet&#45;&gt;MetaContext</title>
<path fill="none" stroke="black" d="M778.088,-300.494C775.763,-292.601 774.712,-283.94 777,-276 777.914,-272.828 779.21,-269.665 780.721,-266.612"/>
<polygon fill="black" stroke="black" points="778.119,-300.58 777.334,-311.518 779.839,-305.275 781.559,-309.97 781.559,-309.97 781.559,-309.97 779.839,-305.275 785.785,-308.422 778.119,-300.58 778.119,-300.58"/>
<polygon fill="black" stroke="black" points="780.756,-266.55 789.636,-260.116 783.245,-262.213 785.733,-257.877 785.733,-257.877 785.733,-257.877 783.245,-262.213 781.83,-255.637 780.756,-266.55 780.756,-266.55"/>
<text text-anchor="middle" x="833.5" y="-280.3" font-family="Times,serif" font-size="14.00">individual_contexts</text>
</g>
<!-- MetaKey -->
<g id="node20" class="node"><title>MetaKey</title>
<ellipse fill="none" stroke="black" cx="798" cy="-166" rx="44.271" ry="18"/>
<text text-anchor="middle" x="798" y="-162.3" font-family="Times,serif" font-size="14.00">MetaKey</text>
</g>
<!-- MetaContext&#45;&gt;MetaKey -->
<g id="edge48" class="edge"><title>MetaContext&#45;&gt;MetaKey</title>
<path fill="none" stroke="black" d="M798.621,-211.719C798.544,-206.145 798.462,-200.274 798.385,-194.686"/>
<polygon fill="black" stroke="black" points="798.624,-211.938 794.263,-222 798.694,-216.937 798.763,-221.937 798.763,-221.937 798.763,-221.937 798.694,-216.937 803.263,-221.874 798.624,-211.938 798.624,-211.938"/>
<polygon fill="black" stroke="black" points="798.381,-194.44 802.742,-184.378 798.312,-189.44 798.242,-184.441 798.242,-184.441 798.242,-184.441 798.312,-189.44 793.743,-184.503 798.381,-194.44 798.381,-194.44"/>
</g>
<!-- MetaKeyDefinition -->
<g id="node21" class="node"><title>MetaKeyDefinition</title>
<ellipse fill="none" stroke="black" cx="687" cy="-92" rx="83.2892" ry="18"/>
<text text-anchor="middle" x="687" y="-88.3" font-family="Times,serif" font-size="14.00">MetaKeyDefinition</text>
</g>
<!-- MetaContext&#45;&gt;MetaKeyDefinition -->
<g id="edge46" class="edge"><title>MetaContext&#45;&gt;MetaKeyDefinition</title>
<path fill="none" stroke="black" d="M774.805,-217.113C764.738,-207.439 753.265,-195.635 744,-184 727.608,-163.416 711.964,-137.865 701.226,-119.083"/>
<ellipse fill="none" stroke="black" cx="777.953" cy="-220.091" rx="4.00002" ry="4.00002"/>
<polygon fill="black" stroke="black" points="701.13,-118.913 700.144,-107.992 698.677,-114.556 696.223,-110.2 696.223,-110.2 696.223,-110.2 698.677,-114.556 692.302,-112.408 701.13,-118.913 701.13,-118.913"/>
</g>
<!-- MetaDate -->
<g id="node16" class="node"><title>MetaDate</title>
<polygon fill="none" stroke="black" points="1223.25,-677 1152.75,-677 1152.75,-641 1223.25,-641 1223.25,-677"/>
<text text-anchor="middle" x="1188" y="-655.3" font-family="Times,serif" font-size="14.00">MetaDate</text>
</g>
<!-- MetaField -->
<g id="node19" class="node"><title>MetaField</title>
<polygon fill="none" stroke="black" points="1316,-677 1242,-677 1242,-641 1316,-641 1316,-677"/>
<text text-anchor="middle" x="1279" y="-655.3" font-family="Times,serif" font-size="14.00">MetaField</text>
</g>
<!-- MetaKey&#45;&gt;MediaEntry -->
<g id="edge54" class="edge"><title>MetaKey&#45;&gt;MediaEntry</title>
<path fill="none" stroke="black" d="M764.185,-186.74C751.663,-195.838 738.661,-207.794 731,-222 704.92,-270.359 705.7,-336.72 708.748,-373.549"/>
<polygon fill="black" stroke="black" points="764.456,-186.555 775.249,-184.618 768.581,-183.73 772.707,-180.905 772.707,-180.905 772.707,-180.905 768.581,-183.73 770.164,-177.192 764.456,-186.555 764.456,-186.555"/>
<polygon fill="black" stroke="black" points="708.793,-374.023 705.26,-384.404 709.266,-379 709.74,-383.978 709.74,-383.978 709.74,-383.978 709.266,-379 714.219,-383.552 708.793,-374.023 708.793,-374.023"/>
</g>
<!-- MetaKey&#45;&gt;MetaDatum -->
<g id="edge52" class="edge"><title>MetaKey&#45;&gt;MetaDatum</title>
<path fill="none" stroke="black" d="M844.61,-155.384C908.681,-142.166 1023.76,-118.424 1091.98,-104.351"/>
<ellipse fill="none" stroke="black" cx="840.6" cy="-156.211" rx="4.00001" ry="4.00001"/>
<polygon fill="black" stroke="black" points="1092.31,-104.283 1103.01,-106.67 1097.21,-103.273 1102.1,-102.262 1102.1,-102.262 1102.1,-102.262 1097.21,-103.273 1101.19,-97.8553 1092.31,-104.283 1092.31,-104.283"/>
</g>
<!-- MetaKey&#45;&gt;MetaKeyDefinition -->
<g id="edge56" class="edge"><title>MetaKey&#45;&gt;MetaKeyDefinition</title>
<path fill="none" stroke="black" d="M768.789,-146.053C754.066,-136.502 736.131,-124.869 720.813,-114.933"/>
<ellipse fill="none" stroke="black" cx="772.182" cy="-148.253" rx="4.00002" ry="4.00002"/>
<polygon fill="black" stroke="black" points="720.53,-114.749 714.589,-105.532 716.335,-112.028 712.14,-109.307 712.14,-109.307 712.14,-109.307 716.335,-112.028 709.691,-113.082 720.53,-114.749 720.53,-114.749"/>
</g>
<!-- MetaKeyMetaTerm -->
<g id="node22" class="node"><title>MetaKeyMetaTerm</title>
<ellipse fill="none" stroke="black" cx="823" cy="-18" rx="83.2892" ry="18"/>
<text text-anchor="middle" x="823" y="-14.3" font-family="Times,serif" font-size="14.00">MetaKeyMetaTerm</text>
</g>
<!-- MetaKey&#45;&gt;MetaKeyMetaTerm -->
<g id="edge58" class="edge"><title>MetaKey&#45;&gt;MetaKeyMetaTerm</title>
<path fill="none" stroke="black" d="M802.315,-139.8C806.782,-113.712 813.738,-73.0897 818.331,-46.2647"/>
<ellipse fill="none" stroke="black" cx="801.592" cy="-144.024" rx="4.00001" ry="4.00001"/>
<polygon fill="black" stroke="black" points="818.336,-46.2344 824.46,-37.1374 819.18,-41.3061 820.024,-36.3779 820.024,-36.3779 820.024,-36.3779 819.18,-41.3061 815.589,-35.6183 818.336,-46.2344 818.336,-46.2344"/>
</g>
<!-- MetaTerm -->
<g id="node23" class="node"><title>MetaTerm</title>
<ellipse fill="none" stroke="black" cx="875" cy="-92" rx="49.0941" ry="18"/>
<text text-anchor="middle" x="875" y="-88.3" font-family="Times,serif" font-size="14.00">MetaTerm</text>
</g>
<!-- MetaKey&#45;&gt;MetaTerm -->
<g id="edge60" class="edge"><title>MetaKey&#45;&gt;MetaTerm</title>
<path fill="none" stroke="black" d="M822.691,-141.912C831.59,-133.591 841.625,-124.208 850.507,-115.902"/>
<polygon fill="black" stroke="black" points="822.393,-142.191 812.015,-145.734 818.741,-145.606 815.089,-149.021 815.089,-149.021 815.089,-149.021 818.741,-145.606 818.162,-152.308 822.393,-142.191 822.393,-142.191"/>
<polygon fill="black" stroke="black" points="850.655,-115.764 861.032,-112.221 854.307,-112.349 857.959,-108.934 857.959,-108.934 857.959,-108.934 854.307,-112.349 854.885,-105.648 850.655,-115.764 850.655,-115.764"/>
</g>
<!-- MetaTerm&#45;&gt;MetaKeyMetaTerm -->
<g id="edge62" class="edge"><title>MetaTerm&#45;&gt;MetaKeyMetaTerm</title>
<path fill="none" stroke="black" d="M858.247,-67.8034C852.898,-60.3971 846.948,-52.1594 841.484,-44.5929"/>
<ellipse fill="none" stroke="black" cx="860.597" cy="-71.0581" rx="4.00002" ry="4.00002"/>
<polygon fill="black" stroke="black" points="841.211,-44.2154 839.004,-33.4739 838.284,-40.162 835.356,-36.1086 835.356,-36.1086 835.356,-36.1086 838.284,-40.162 831.708,-38.7434 841.211,-44.2154 841.211,-44.2154"/>
</g>
<!-- Permission -->
<g id="node24" class="node"><title>Permission</title>
<ellipse fill="none" stroke="black" cx="1386" cy="-659" rx="51.4931" ry="18"/>
<text text-anchor="middle" x="1386" y="-655.3" font-family="Times,serif" font-size="14.00">Permission</text>
</g>
<!-- Person -->
<g id="node25" class="node"><title>Person</title>
<ellipse fill="none" stroke="black" cx="719" cy="-659" rx="36.096" ry="18"/>
<text text-anchor="middle" x="719" y="-655.3" font-family="Times,serif" font-size="14.00">Person</text>
</g>
<!-- Person&#45;&gt;User -->
<g id="edge64" class="edge"><title>Person&#45;&gt;User</title>
<path fill="none" stroke="black" d="M720.65,-632.772C721.76,-615.812 723.217,-593.533 724.331,-576.513"/>
<ellipse fill="none" stroke="black" cx="720.386" cy="-636.817" rx="4" ry="4"/>
<ellipse fill="black" stroke="black" cx="724.617" cy="-572.14" rx="4" ry="4"/>
</g>
<!-- Subject -->
<g id="node28" class="node"><title>Subject</title>
<polygon fill="none" stroke="black" stroke-dasharray="1,5" points="1514.25,-677 1455.75,-677 1455.75,-641 1514.25,-641 1514.25,-677"/>
<text text-anchor="middle" x="1485" y="-655.3" font-family="Times,serif" font-size="14.00">Subject</text>
</g>
<!-- UploadSession -->
<g id="node29" class="node"><title>UploadSession</title>
<ellipse fill="none" stroke="black" cx="663" cy="-476" rx="66.4165" ry="18"/>
<text text-anchor="middle" x="663" y="-472.3" font-family="Times,serif" font-size="14.00">UploadSession</text>
</g>
<!-- UploadSession&#45;&gt;MediaEntry -->
<g id="edge70" class="edge"><title>UploadSession&#45;&gt;MediaEntry</title>
<path fill="none" stroke="black" d="M679.231,-451.15C684.227,-443.809 689.743,-435.705 694.801,-428.272"/>
<ellipse fill="none" stroke="black" cx="676.863" cy="-454.63" rx="4.00002" ry="4.00002"/>
<polygon fill="black" stroke="black" points="694.845,-428.208 704.191,-422.472 697.658,-424.074 700.471,-419.941 700.471,-419.941 700.471,-419.941 697.658,-424.074 696.751,-417.409 694.845,-428.208 694.845,-428.208"/>
</g>
<!-- UploadSession&#45;&gt;MediaEntryIncomplete -->
<g id="edge68" class="edge"><title>UploadSession&#45;&gt;MediaEntryIncomplete</title>
<path fill="none" stroke="black" d="M590.163,-470.109C555.731,-463.699 517.534,-449.764 496,-420 481.158,-399.485 496.618,-372.741 512.623,-353.563"/>
<ellipse fill="none" stroke="black" cx="594.419" cy="-470.836" rx="4.00001" ry="4.00001"/>
<polygon fill="black" stroke="black" points="512.814,-353.347 522.803,-348.824 516.121,-349.597 519.429,-345.847 519.429,-345.847 519.429,-345.847 516.121,-349.597 516.054,-342.871 512.814,-353.347 512.814,-353.347"/>
<text text-anchor="middle" x="571.5" y="-398.3" font-family="Times,serif" font-size="14.00">incomplete_media_entries</text>
</g>
<!-- UsageTerm -->
<g id="node30" class="node"><title>UsageTerm</title>
<ellipse fill="none" stroke="black" cx="1586" cy="-659" rx="53.4184" ry="18"/>
<text text-anchor="middle" x="1586" y="-655.3" font-family="Times,serif" font-size="14.00">UsageTerm</text>
</g>
<!-- User&#45;&gt;MediaEntry -->
<g id="edge78" class="edge"><title>User&#45;&gt;MediaEntry</title>
<path fill="none" stroke="black" d="M734.395,-522.392C738.968,-504.129 742.807,-479.416 738,-458 735.792,-448.162 731.615,-438.012 727.244,-429.152"/>
<polygon fill="black" stroke="black" points="734.386,-522.422 727.412,-530.884 733.07,-527.245 731.753,-532.069 731.753,-532.069 731.753,-532.069 733.07,-527.245 736.094,-533.254 734.386,-522.422 734.386,-522.422"/>
<polygon fill="black" stroke="black" points="727.152,-428.977 726.496,-418.03 724.831,-424.548 722.51,-420.119 722.51,-420.119 722.51,-420.119 724.831,-424.548 718.524,-422.208 727.152,-428.977 727.152,-428.977"/>
</g>
<!-- User&#45;&gt;MediaResource -->
<g id="edge74" class="edge"><title>User&#45;&gt;MediaResource</title>
<path fill="none" stroke="black" d="M755.197,-565.314C757.801,-566.315 760.426,-567.231 763,-568 814.251,-583.317 834.255,-561.882 882,-586 903.767,-596.996 922.983,-617.049 936.076,-633.205"/>
<ellipse fill="none" stroke="black" cx="751.211" cy="-563.652" rx="4.00001" ry="4.00001"/>
<polygon fill="black" stroke="black" points="936.189,-633.349 938.8,-644 939.267,-637.289 942.346,-641.229 942.346,-641.229 942.346,-641.229 939.267,-637.289 945.892,-638.459 936.189,-633.349 936.189,-633.349"/>
</g>
<!-- User&#45;&gt;MediaResource -->
<g id="edge82" class="edge"><title>User&#45;&gt;MediaResource</title>
<path fill="none" stroke="black" d="M734.461,-577.374C738.5,-586.309 744.199,-595.629 752,-602 787.673,-631.137 837.446,-645.151 878.659,-651.874"/>
<polygon fill="black" stroke="black" points="734.421,-577.274 734.888,-566.318 732.565,-572.631 730.709,-567.988 730.709,-567.988 730.709,-567.988 732.565,-572.631 726.531,-569.658 734.421,-577.274 734.421,-577.274"/>
<polygon fill="black" stroke="black" points="878.779,-651.892 887.991,-657.842 883.722,-652.643 888.666,-653.393 888.666,-653.393 888.666,-653.393 883.722,-652.643 889.341,-648.944 878.779,-651.892 878.779,-651.892"/>
<text text-anchor="middle" x="776.5" y="-590.3" font-family="Times,serif" font-size="14.00">favorites</text>
</g>
<!-- User&#45;&gt;MediaSet -->
<g id="edge80" class="edge"><title>User&#45;&gt;MediaSet</title>
<path fill="none" stroke="black" d="M743.486,-527.022C746.275,-522.856 748.921,-518.414 751,-514 775.719,-461.507 785.368,-393.417 788.976,-356.217"/>
<ellipse fill="none" stroke="black" cx="741.048" cy="-530.46" rx="4.00002" ry="4.00002"/>
<polygon fill="black" stroke="black" points="788.986,-356.109 794.359,-346.55 789.431,-351.129 789.877,-346.149 789.877,-346.149 789.877,-346.149 789.431,-351.129 785.395,-345.748 788.986,-356.109 788.986,-356.109"/>
</g>
<!-- User&#45;&gt;UploadSession -->
<g id="edge76" class="edge"><title>User&#45;&gt;UploadSession</title>
<path fill="none" stroke="black" d="M707.309,-527.639C700.129,-519.433 691.879,-510.005 684.459,-501.525"/>
<ellipse fill="none" stroke="black" cx="710.005" cy="-530.72" rx="4.00002" ry="4.00002"/>
<polygon fill="black" stroke="black" points="684.246,-501.282 681.048,-490.793 680.954,-497.519 677.661,-493.756 677.661,-493.756 677.661,-493.756 680.954,-497.519 674.275,-496.719 684.246,-501.282 684.246,-501.282"/>
</g>
<!-- User&#45;&gt;Userpermission -->
<g id="edge72" class="edge"><title>User&#45;&gt;Userpermission</title>
<path fill="none" stroke="black" d="M755.612,-535.19C758.102,-534.09 760.589,-533.014 763,-532 783.618,-523.326 789.314,-522.511 810,-514 823.637,-508.389 838.391,-502 851.673,-496.128"/>
<ellipse fill="none" stroke="black" cx="751.85" cy="-536.878" rx="4.00002" ry="4.00002"/>
<polygon fill="black" stroke="black" points="851.909,-496.024 862.874,-496.075 856.478,-493.993 861.047,-491.963 861.047,-491.963 861.047,-491.963 856.478,-493.993 859.22,-487.851 851.909,-496.024 851.909,-496.024"/>
</g>
<!-- WikiPage -->
<g id="node33" class="node"><title>WikiPage</title>
<ellipse fill="none" stroke="black" cx="1705" cy="-659" rx="47.169" ry="18"/>
<text text-anchor="middle" x="1705" y="-655.3" font-family="Times,serif" font-size="14.00">WikiPage</text>
</g>
<!-- WikiPageVersion -->
<g id="node34" class="node"><title>WikiPageVersion</title>
<ellipse fill="none" stroke="black" cx="1705" cy="-550" rx="76.5394" ry="18"/>
<text text-anchor="middle" x="1705" y="-546.3" font-family="Times,serif" font-size="14.00">WikiPageVersion</text>
</g>
<!-- WikiPage&#45;&gt;WikiPageVersion -->
<g id="edge84" class="edge"><title>WikiPage&#45;&gt;WikiPageVersion</title>
<path fill="none" stroke="black" d="M1705,-632.772C1705,-616.434 1705,-595.161 1705,-578.408"/>
<ellipse fill="none" stroke="black" cx="1705" cy="-636.809" rx="4" ry="4"/>
<polygon fill="black" stroke="black" points="1705,-578.149 1709.5,-568.149 1705,-573.149 1705,-568.149 1705,-568.149 1705,-568.149 1705,-573.149 1700.5,-568.149 1705,-578.149 1705,-578.149"/>
<text text-anchor="middle" x="1729" y="-590.3" font-family="Times,serif" font-size="14.00">versions</text>
</g>
<!-- Settings -->
<g id="node35" class="node"><title>Settings</title>
<ellipse fill="none" stroke="black" cx="265" cy="-659" rx="39.9464" ry="18"/>
<text text-anchor="middle" x="265" y="-655.3" font-family="Times,serif" font-size="14.00">Settings</text>
</g>
<!-- Settings&#45;&gt;AppSettings -->
<g id="edge2" class="edge"><title>Settings&#45;&gt;AppSettings</title>
<path fill="none" stroke="black" d="M265,-640.809C265,-620.841 265,-588.098 265,-568.149"/>
</g>
</g>
</svg>
