<?xml version="1.0" encoding="UTF-8" standalone="no"?>
<!DOCTYPE svg PUBLIC "-//W3C//DTD SVG 1.1//EN"
 "http://www.w3.org/Graphics/SVG/1.1/DTD/svg11.dtd">
<!-- Generated by graphviz version 2.28.0 (20120127.1217)
 -->
<!-- Title: models_diagram Pages: 1 -->
<svg width="1797pt" height="720pt"
 viewBox="0.00 0.00 1797.00 720.00" xmlns="http://www.w3.org/2000/svg" xmlns:xlink="http://www.w3.org/1999/xlink">
<g id="graph1" class="graph" transform="scale(1 1) rotate(0) translate(4 716)">
<title>models_diagram</title>
<polygon fill="white" stroke="white" points="-4,5 -4,-716 1794,-716 1794,5 -4,5"/>
<!-- _diagram_info -->
<g id="node1" class="node"><title>_diagram_info</title>
<text text-anchor="start" x="7.5" y="-697.6" font-family="Times,serif" font-size="13.00">Models diagram</text>
<text text-anchor="start" x="7.5" y="-683.6" font-family="Times,serif" font-size="13.00">Date: Jan 27 2012 &#45; 14:52</text>
<text text-anchor="start" x="7.5" y="-669.6" font-family="Times,serif" font-size="13.00">Migration version: 20120119000004</text>
<text text-anchor="start" x="7.5" y="-655.6" font-family="Times,serif" font-size="13.00">Generated by RailRoady 1.0.5</text>
<text text-anchor="start" x="7.5" y="-641.6" font-family="Times,serif" font-size="13.00">http://railroady.prestonlee.com</text>
</g>
<!-- AppSettings -->
<g id="node2" class="node"><title>AppSettings</title>
<ellipse fill="none" stroke="black" cx="265" cy="-564" rx="57.2927" ry="18"/>
<text text-anchor="middle" x="265" y="-560.3" font-family="Times,serif" font-size="14.00">AppSettings</text>
</g>
<!-- Copyright -->
<g id="node3" class="node"><title>Copyright</title>
<ellipse fill="none" stroke="black" cx="373" cy="-673" rx="50.0684" ry="18"/>
<text text-anchor="middle" x="373" y="-669.3" font-family="Times,serif" font-size="14.00">Copyright</text>
</g>
<!-- Copyright&#45;&gt;Copyright -->
<g id="edge4" class="edge"><title>Copyright&#45;&gt;Copyright</title>
<path fill="none" stroke="black" d="M418.894,-684.921C431.435,-684.323 441,-680.35 441,-673 441,-666.066 432.487,-662.137 420.994,-661.213"/>
<ellipse fill="none" stroke="black" cx="414.761" cy="-684.888" rx="4" ry="4"/>
<polygon fill="black" stroke="black" points="420.761,-661.212 410.792,-656.644 415.761,-661.178 410.761,-661.144 410.761,-661.144 410.761,-661.144 415.761,-661.178 410.73,-665.643 420.761,-661.212 420.761,-661.212"/>
<text text-anchor="middle" x="465" y="-669.3" font-family="Times,serif" font-size="14.00">children</text>
</g>
<!-- EditSession -->
<g id="node4" class="node"><title>EditSession</title>
<ellipse fill="none" stroke="black" cx="1113" cy="-564" rx="54.3924" ry="18"/>
<text text-anchor="middle" x="1113" y="-560.3" font-family="Times,serif" font-size="14.00">EditSession</text>
</g>
<!-- FullText -->
<g id="node5" class="node"><title>FullText</title>
<ellipse fill="none" stroke="black" cx="1228" cy="-564" rx="42.3701" ry="18"/>
<text text-anchor="middle" x="1228" y="-560.3" font-family="Times,serif" font-size="14.00">FullText</text>
</g>
<!-- Group -->
<g id="node6" class="node"><title>Group</title>
<ellipse fill="none" stroke="black" cx="543" cy="-673" rx="35.6194" ry="18"/>
<text text-anchor="middle" x="543" y="-669.3" font-family="Times,serif" font-size="14.00">Group</text>
</g>
<!-- Grouppermission -->
<g id="node7" class="node"><title>Grouppermission</title>
<ellipse fill="none" stroke="black" cx="849" cy="-564" rx="76.5394" ry="18"/>
<text text-anchor="middle" x="849" y="-560.3" font-family="Times,serif" font-size="14.00">Grouppermission</text>
</g>
<!-- Group&#45;&gt;Grouppermission -->
<g id="edge6" class="edge"><title>Group&#45;&gt;Grouppermission</title>
<path fill="none" stroke="black" d="M579.593,-659.864C605.669,-651.591 641.684,-640.922 674,-634 730.174,-621.967 751.122,-642.679 802,-616 813.547,-609.945 823.734,-599.888 831.646,-590.298"/>
<ellipse fill="none" stroke="black" cx="575.644" cy="-661.128" rx="4.00001" ry="4.00001"/>
<polygon fill="black" stroke="black" points="831.869,-590.01 841.549,-584.857 834.93,-586.056 837.991,-582.103 837.991,-582.103 837.991,-582.103 834.93,-586.056 834.432,-579.348 831.869,-590.01 831.869,-590.01"/>
</g>
<!-- Meta::Department -->
<g id="node16" class="node"><title>Meta::Department</title>
<ellipse fill="none" stroke="black" cx="462" cy="-564" rx="77.4897" ry="18"/>
<text text-anchor="middle" x="462" y="-560.3" font-family="Times,serif" font-size="14.00">Meta::Department</text>
</g>
<!-- Group&#45;&gt;Meta::Department -->
<g id="edge46" class="edge"><title>Group&#45;&gt;Meta::Department</title>
<path fill="none" stroke="black" d="M530.698,-655.749C515.562,-635.755 489.995,-601.981 474.685,-581.757"/>
</g>
<!-- User -->
<g id="node32" class="node"><title>User</title>
<ellipse fill="none" stroke="black" cx="726" cy="-564" rx="28.3955" ry="18"/>
<text text-anchor="middle" x="726" y="-560.3" font-family="Times,serif" font-size="14.00">User</text>
</g>
<!-- Group&#45;&gt;User -->
<g id="edge8" class="edge"><title>Group&#45;&gt;User</title>
<path fill="none" stroke="black" d="M574.463,-653.604C608.91,-633.463 663.679,-601.439 697.083,-581.908"/>
<polygon fill="black" stroke="black" points="574.072,-653.832 563.168,-654.995 569.756,-656.356 565.439,-658.88 565.439,-658.88 565.439,-658.88 569.756,-656.356 567.711,-662.764 574.072,-653.832 574.072,-653.832"/>
<polygon fill="black" stroke="black" points="697.271,-581.798 708.175,-580.635 701.587,-579.274 705.903,-576.751 705.903,-576.751 705.903,-576.751 701.587,-579.274 703.632,-572.866 697.271,-581.798 697.271,-581.798"/>
</g>
<!-- Keyword -->
<g id="node8" class="node"><title>Keyword</title>
<ellipse fill="none" stroke="black" cx="1088" cy="-673" rx="46.1964" ry="18"/>
<text text-anchor="middle" x="1088" y="-669.3" font-family="Times,serif" font-size="14.00">Keyword</text>
</g>
<!-- MediaEntry -->
<g id="node9" class="node"><title>MediaEntry</title>
<ellipse fill="none" stroke="black" cx="712" cy="-416" rx="55.3436" ry="18"/>
<text text-anchor="middle" x="712" y="-412.3" font-family="Times,serif" font-size="14.00">MediaEntry</text>
</g>
<!-- MediaEntryIncomplete -->
<g id="node10" class="node"><title>MediaEntryIncomplete</title>
<ellipse fill="none" stroke="black" cx="537" cy="-342" rx="96.2631" ry="18"/>
<text text-anchor="middle" x="537" y="-338.3" font-family="Times,serif" font-size="14.00">MediaEntryIncomplete</text>
</g>
<!-- MediaEntry&#45;&gt;MediaEntryIncomplete -->
<g id="edge16" class="edge"><title>MediaEntry&#45;&gt;MediaEntryIncomplete</title>
<path fill="none" stroke="black" d="M679.084,-401.457C649.48,-389.277 605.996,-371.387 574.94,-358.61"/>
</g>
<!-- MediaSet -->
<g id="node13" class="node"><title>MediaSet</title>
<ellipse fill="none" stroke="black" cx="791" cy="-342" rx="46.2191" ry="18"/>
<text text-anchor="middle" x="791" y="-338.3" font-family="Times,serif" font-size="14.00">MediaSet</text>
</g>
<!-- MediaEntry&#45;&gt;MediaSet -->
<g id="edge12" class="edge"><title>MediaEntry&#45;&gt;MediaSet</title>
<path fill="none" stroke="black" d="M737.383,-391.866C746.554,-383.508 756.894,-374.084 766.029,-365.758"/>
<polygon fill="black" stroke="black" points="737.317,-391.926 726.895,-395.336 733.622,-395.294 729.926,-398.662 729.926,-398.662 729.926,-398.662 733.622,-395.294 732.958,-401.988 737.317,-391.926 737.317,-391.926"/>
<polygon fill="black" stroke="black" points="766.297,-365.515 776.719,-362.104 769.992,-362.146 773.688,-358.778 773.688,-358.778 773.688,-358.778 769.992,-362.146 770.656,-355.453 766.297,-365.515 766.297,-365.515"/>
</g>
<!-- Snapshot -->
<g id="node27" class="node"><title>Snapshot</title>
<ellipse fill="none" stroke="black" cx="1058" cy="-342" rx="45.244" ry="18"/>
<text text-anchor="middle" x="1058" y="-338.3" font-family="Times,serif" font-size="14.00">Snapshot</text>
</g>
<!-- MediaEntry&#45;&gt;Snapshot -->
<g id="edge10" class="edge"><title>MediaEntry&#45;&gt;Snapshot</title>
<path fill="none" stroke="black" d="M769.102,-406.168C828.076,-396.589 922.575,-379.962 1003,-360 1006.66,-359.092 1010.43,-358.082 1014.21,-357.021"/>
<ellipse fill="none" stroke="black" cx="764.97" cy="-406.835" rx="4.00001" ry="4.00001"/>
<polygon fill="black" stroke="black" points="1014.54,-356.926 1025.4,-358.444 1019.34,-355.525 1024.13,-354.124 1024.13,-354.124 1024.13,-354.124 1019.34,-355.525 1022.87,-349.805 1014.54,-356.926 1014.54,-356.926"/>
</g>
<!-- MediaFile -->
<g id="node11" class="node"><title>MediaFile</title>
<ellipse fill="none" stroke="black" cx="421" cy="-490" rx="48.1437" ry="18"/>
<text text-anchor="middle" x="421" y="-486.3" font-family="Times,serif" font-size="14.00">MediaFile</text>
</g>
<!-- MediaFile&#45;&gt;MediaEntry -->
<g id="edge18" class="edge"><title>MediaFile&#45;&gt;MediaEntry</title>
<path fill="none" stroke="black" d="M465.265,-475.854C491.04,-468.408 524.227,-459.177 554,-452 592.809,-442.645 603.041,-442.712 642,-434 647.708,-432.724 653.666,-431.346 659.593,-429.947"/>
<ellipse fill="none" stroke="black" cx="461.357" cy="-476.988" rx="4.00001" ry="4.00001"/>
<polygon fill="black" stroke="black" points="659.761,-429.907 670.532,-431.964 664.624,-428.747 669.488,-427.587 669.488,-427.587 669.488,-427.587 664.624,-428.747 668.444,-423.21 659.761,-429.907 659.761,-429.907"/>
</g>
<!-- Preview -->
<g id="node26" class="node"><title>Preview</title>
<ellipse fill="none" stroke="black" cx="409" cy="-416" rx="41.394" ry="18"/>
<text text-anchor="middle" x="409" y="-412.3" font-family="Times,serif" font-size="14.00">Preview</text>
</g>
<!-- MediaFile&#45;&gt;Preview -->
<g id="edge20" class="edge"><title>MediaFile&#45;&gt;Preview</title>
<path fill="none" stroke="black" d="M416.799,-463.792C415.763,-457.58 414.649,-450.896 413.596,-444.579"/>
<ellipse fill="none" stroke="black" cx="417.499" cy="-467.991" rx="4.00001" ry="4.00001"/>
<polygon fill="black" stroke="black" points="413.551,-444.305 416.346,-433.701 412.729,-439.373 411.907,-434.441 411.907,-434.441 411.907,-434.441 412.729,-439.373 407.468,-435.181 413.551,-444.305 413.551,-444.305"/>
</g>
<!-- MediaResource -->
<g id="node12" class="node"><title>MediaResource</title>
<ellipse fill="none" stroke="black" cx="954" cy="-673" rx="68.3417" ry="18"/>
<text text-anchor="middle" x="954" y="-669.3" font-family="Times,serif" font-size="14.00">MediaResource</text>
</g>
<!-- MediaResource&#45;&gt;EditSession -->
<g id="edge28" class="edge"><title>MediaResource&#45;&gt;EditSession</title>
<path fill="none" stroke="black" d="M987.426,-652.077C1004.55,-641.65 1025.62,-628.484 1044,-616 1057.52,-606.821 1072.12,-596.145 1084.39,-586.94"/>
<ellipse fill="none" stroke="black" cx="983.767" cy="-654.295" rx="4.00002" ry="4.00002"/>
<polygon fill="black" stroke="black" points="1084.5,-586.863 1095.19,-584.43 1088.49,-583.85 1092.48,-580.838 1092.48,-580.838 1092.48,-580.838 1088.49,-583.85 1089.77,-577.247 1084.5,-586.863 1084.5,-586.863"/>
</g>
<!-- MediaResource&#45;&gt;FullText -->
<g id="edge32" class="edge"><title>MediaResource&#45;&gt;FullText</title>
<path fill="none" stroke="black" d="M990.972,-652.91C1003.82,-646.568 1018.41,-639.682 1032,-634 1060.69,-622.007 1139.63,-594.874 1188.13,-578.432"/>
<ellipse fill="none" stroke="black" cx="987.213" cy="-654.784" rx="4.00002" ry="4.00002"/>
<ellipse fill="black" stroke="black" cx="1192.14" cy="-577.073" rx="4.00001" ry="4.00001"/>
</g>
<!-- MediaResource&#45;&gt;Grouppermission -->
<g id="edge24" class="edge"><title>MediaResource&#45;&gt;Grouppermission</title>
<path fill="none" stroke="black" d="M944.919,-647.273C938.407,-632.18 928.413,-613.295 915,-600 909.236,-594.286 902.346,-589.275 895.225,-584.963"/>
<ellipse fill="none" stroke="black" cx="946.483" cy="-651.072" rx="4.00002" ry="4.00002"/>
<polygon fill="black" stroke="black" points="894.872,-584.766 888.349,-575.951 890.511,-582.321 886.149,-579.876 886.149,-579.876 886.149,-579.876 890.511,-582.321 883.949,-583.802 894.872,-584.766 894.872,-584.766"/>
</g>
<!-- MediaResource&#45;&gt;MediaEntry -->
<g id="edge14" class="edge"><title>MediaResource&#45;&gt;MediaEntry</title>
<path fill="none" stroke="black" d="M896.513,-663.152C851.391,-654.825 787.765,-639.983 736,-616 704.466,-601.39 597.012,-527.747 587,-508 579.765,-493.729 578.256,-485.4 587,-472 596.976,-456.711 640.185,-439.913 673.032,-428.955"/>
</g>
<!-- MediaResource&#45;&gt;MediaSet -->
<g id="edge44" class="edge"><title>MediaResource&#45;&gt;MediaSet</title>
<path fill="none" stroke="black" d="M964.183,-654.869C975.439,-634.275 992,-598.315 992,-565 992,-565 992,-565 992,-415 992,-381.547 892.076,-359.474 833.136,-349.364"/>
</g>
<!-- MetaDatum -->
<g id="node19" class="node"><title>MetaDatum</title>
<ellipse fill="none" stroke="black" cx="1155" cy="-92" rx="54.3924" ry="18"/>
<text text-anchor="middle" x="1155" y="-88.3" font-family="Times,serif" font-size="14.00">MetaDatum</text>
</g>
<!-- MediaResource&#45;&gt;MetaDatum -->
<g id="edge26" class="edge"><title>MediaResource&#45;&gt;MetaDatum</title>
<path fill="none" stroke="black" d="M989.272,-652.535C1002.39,-645.912 1017.59,-638.943 1032,-634 1147.53,-594.375 1298,-687.135 1298,-565 1298,-565 1298,-565 1298,-179 1298,-136.848 1251.8,-114.83 1211.93,-103.676"/>
<ellipse fill="none" stroke="black" cx="985.369" cy="-654.545" rx="4.00002" ry="4.00002"/>
<polygon fill="black" stroke="black" points="1211.89,-103.667 1203.36,-96.7799 1207.06,-102.4 1202.22,-101.133 1202.22,-101.133 1202.22,-101.133 1207.06,-102.4 1201.08,-105.486 1211.89,-103.667 1211.89,-103.667"/>
</g>
<!-- MediaResource&#45;&gt;Snapshot -->
<g id="edge68" class="edge"><title>MediaResource&#45;&gt;Snapshot</title>
<path fill="none" stroke="black" d="M975.575,-655.649C998.044,-636.585 1030,-602.824 1030,-565 1030,-565 1030,-565 1030,-415 1030,-395.016 1039.49,-373.904 1047.41,-359.747"/>
</g>
<!-- MediaResource&#45;&gt;User -->
<g id="edge30" class="edge"><title>MediaResource&#45;&gt;User</title>
<path fill="none" stroke="black" d="M914.402,-652.262C884.51,-637.51 842.392,-617.036 805,-600 786.519,-591.58 781.562,-590.24 763,-582 761.207,-581.204 759.368,-580.381 757.514,-579.546"/>
<polygon fill="black" stroke="black" points="914.693,-652.406 921.661,-660.873 919.175,-654.623 923.656,-656.84 923.656,-656.84 923.656,-656.84 919.175,-654.623 925.651,-652.806 914.693,-652.406 914.693,-652.406"/>
<polygon fill="black" stroke="black" points="757.367,-579.479 750.125,-571.245 752.815,-577.41 748.263,-575.341 748.263,-575.341 748.263,-575.341 752.815,-577.41 746.401,-579.438 757.367,-579.479 757.367,-579.479"/>
<text text-anchor="middle" x="858" y="-604.3" font-family="Times,serif" font-size="14.00">editors</text>
</g>
<!-- Userpermission -->
<g id="node33" class="node"><title>Userpermission</title>
<ellipse fill="none" stroke="black" cx="894" cy="-490" rx="69.3156" ry="18"/>
<text text-anchor="middle" x="894" y="-486.3" font-family="Times,serif" font-size="14.00">Userpermission</text>
</g>
<!-- MediaResource&#45;&gt;Userpermission -->
<g id="edge22" class="edge"><title>MediaResource&#45;&gt;Userpermission</title>
<path fill="none" stroke="black" d="M953.42,-646.344C952.039,-620.191 947.645,-578.903 934,-546 929.613,-535.421 922.808,-524.962 916.047,-516.052"/>
<ellipse fill="none" stroke="black" cx="953.607" cy="-650.603" rx="4" ry="4"/>
<polygon fill="black" stroke="black" points="915.888,-515.853 913.178,-505.227 912.773,-511.941 909.658,-508.03 909.658,-508.03 909.658,-508.03 912.773,-511.941 906.138,-510.833 915.888,-515.853 915.888,-515.853"/>
</g>
<!-- MediaSet&#45;&gt;MediaSet -->
<g id="edge38" class="edge"><title>MediaSet&#45;&gt;MediaSet</title>
<path fill="none" stroke="black" d="M846.636,-344.693C851.767,-344.136 855,-343.239 855,-342 855,-340.761 851.767,-339.864 846.636,-339.307"/>
<polygon fill="black" stroke="black" points="846.426,-344.706 836.173,-340.816 841.435,-345.007 836.445,-345.308 836.445,-345.308 836.445,-345.308 841.435,-345.007 836.716,-349.8 846.426,-344.706 846.426,-344.706"/>
<polygon fill="black" stroke="black" points="846.426,-339.294 836.716,-334.2 841.435,-338.993 836.445,-338.692 836.445,-338.692 836.445,-338.692 841.435,-338.993 836.173,-343.184 846.426,-339.294 846.426,-339.294"/>
<text text-anchor="middle" x="883.5" y="-338.3" font-family="Times,serif" font-size="14.00">child_sets</text>
</g>
<!-- MediaSet&#45;&gt;MediaSet -->
<g id="edge40" class="edge"><title>MediaSet&#45;&gt;MediaSet</title>
<path fill="none" stroke="black" d="M836.251,-355.202C871.698,-359.192 912,-354.791 912,-342 912,-329.209 871.698,-324.808 836.251,-328.798"/>
<polygon fill="black" stroke="black" points="835.845,-355.146 826.557,-349.318 830.893,-354.461 825.94,-353.775 825.94,-353.775 825.94,-353.775 830.893,-354.461 825.323,-358.233 835.845,-355.146 835.845,-355.146"/>
<polygon fill="black" stroke="black" points="835.845,-328.854 825.323,-325.767 830.893,-329.539 825.94,-330.225 825.94,-330.225 825.94,-330.225 830.893,-329.539 826.557,-334.682 835.845,-328.854 835.845,-328.854"/>
<text text-anchor="middle" x="944" y="-338.3" font-family="Times,serif" font-size="14.00">parent_sets</text>
</g>
<!-- MediaSetArc -->
<g id="node14" class="node"><title>MediaSetArc</title>
<ellipse fill="none" stroke="black" cx="950" cy="-254" rx="59.1941" ry="18"/>
<text text-anchor="middle" x="950" y="-250.3" font-family="Times,serif" font-size="14.00">MediaSetArc</text>
</g>
<!-- MediaSet&#45;&gt;MediaSetArc -->
<g id="edge34" class="edge"><title>MediaSet&#45;&gt;MediaSetArc</title>
<path fill="none" stroke="black" d="M843.868,-336.901C886.652,-332.356 942.016,-323.261 956,-306 961.486,-299.229 961.907,-290.193 960.332,-281.609"/>
<ellipse fill="none" stroke="black" cx="839.746" cy="-337.32" rx="4" ry="4"/>
<polygon fill="black" stroke="black" points="960.321,-281.566 962.099,-270.745 959.036,-276.734 957.75,-271.902 957.75,-271.902 957.75,-271.902 959.036,-276.734 953.401,-273.059 960.321,-281.566 960.321,-281.566"/>
<text text-anchor="middle" x="986.5" y="-294.3" font-family="Times,serif" font-size="14.00">out_arcs</text>
</g>
<!-- MediaSet&#45;&gt;MediaSetArc -->
<g id="edge36" class="edge"><title>MediaSet&#45;&gt;MediaSetArc</title>
<path fill="none" stroke="black" d="M836.486,-329.061C854.158,-323.418 874.158,-315.749 891,-306 891.992,-305.426 908.439,-291.193 923.715,-277.909"/>
<ellipse fill="none" stroke="black" cx="832.372" cy="-330.331" rx="4.00001" ry="4.00001"/>
<polygon fill="black" stroke="black" points="923.965,-277.692 934.463,-274.522 927.737,-274.409 931.509,-271.127 931.509,-271.127 931.509,-271.127 927.737,-274.409 928.555,-267.732 923.965,-277.692 923.965,-277.692"/>
<text text-anchor="middle" x="931" y="-294.3" font-family="Times,serif" font-size="14.00">in_arcs</text>
</g>
<!-- MetaContext -->
<g id="node18" class="node"><title>MetaContext</title>
<ellipse fill="none" stroke="black" cx="799" cy="-254" rx="59.2173" ry="18"/>
<text text-anchor="middle" x="799" y="-250.3" font-family="Times,serif" font-size="14.00">MetaContext</text>
</g>
<!-- MediaSet&#45;&gt;MetaContext -->
<g id="edge42" class="edge"><title>MediaSet&#45;&gt;MetaContext</title>
<path fill="none" stroke="black" d="M778.922,-314.475C776.76,-306.581 775.805,-297.925 778,-290 778.889,-286.79 780.159,-283.579 781.641,-280.476"/>
<polygon fill="black" stroke="black" points="778.927,-314.49 777.9,-325.408 780.543,-319.222 782.159,-323.954 782.159,-323.954 782.159,-323.954 780.543,-319.222 786.417,-322.499 778.927,-314.49 778.927,-314.49"/>
<polygon fill="black" stroke="black" points="781.712,-280.348 790.489,-273.774 784.131,-275.972 786.551,-271.597 786.551,-271.597 786.551,-271.597 784.131,-275.972 782.613,-269.419 781.712,-280.348 781.712,-280.348"/>
<text text-anchor="middle" x="834.5" y="-294.3" font-family="Times,serif" font-size="14.00">individual_contexts</text>
</g>
<!-- Meta::Date -->
<g id="node15" class="node"><title>Meta::Date</title>
<polygon fill="none" stroke="black" points="1231.25,-691 1152.75,-691 1152.75,-655 1231.25,-655 1231.25,-691"/>
<text text-anchor="middle" x="1192" y="-669.3" font-family="Times,serif" font-size="14.00">Meta::Date</text>
</g>
<!-- Meta::Term -->
<g id="node17" class="node"><title>Meta::Term</title>
<ellipse fill="none" stroke="black" cx="986" cy="-92" rx="53.4184" ry="18"/>
<text text-anchor="middle" x="986" y="-88.3" font-family="Times,serif" font-size="14.00">Meta::Term</text>
</g>
<!-- Meta::MetaKeyMetaTerm -->
<g id="node61" class="node"><title>Meta::MetaKeyMetaTerm</title>
<ellipse fill="none" stroke="black" cx="890" cy="-18" rx="106.386" ry="18"/>
<text text-anchor="middle" x="890" y="-14.3" font-family="Times,serif" font-size="14.00">Meta::MetaKeyMetaTerm</text>
</g>
<!-- Meta::Term&#45;&gt;Meta::MetaKeyMetaTerm -->
<g id="edge48" class="edge"><title>Meta::Term&#45;&gt;Meta::MetaKeyMetaTerm</title>
<path fill="none" stroke="black" d="M958.699,-70.5241C946.816,-61.6123 932.841,-51.1304 920.608,-41.9557"/>
<ellipse fill="none" stroke="black" cx="961.969" cy="-72.9771" rx="4.00002" ry="4.00002"/>
<polygon fill="black" stroke="black" points="920.464,-41.8482 915.164,-32.2481 916.464,-38.8481 912.464,-35.8481 912.464,-35.8481 912.464,-35.8481 916.464,-38.8481 909.764,-39.4481 920.464,-41.8482 920.464,-41.8482"/>
</g>
<!-- Meta::MetaKey -->
<g id="node63" class="node"><title>Meta::MetaKey</title>
<ellipse fill="none" stroke="black" cx="1083" cy="-18" rx="68.3664" ry="18"/>
<text text-anchor="middle" x="1083" y="-14.3" font-family="Times,serif" font-size="14.00">Meta::MetaKey</text>
</g>
<!-- Meta::Term&#45;&gt;Meta::MetaKey -->
<g id="edge50" class="edge"><title>Meta::Term&#45;&gt;Meta::MetaKey</title>
<path fill="none" stroke="black" d="M1015.38,-69.1948C1027.28,-60.3615 1041.01,-50.1706 1052.97,-41.2888"/>
<polygon fill="black" stroke="black" points="1015.08,-69.4168 1004.37,-71.7637 1011.06,-72.397 1007.05,-75.3771 1007.05,-75.3771 1007.05,-75.3771 1011.06,-72.397 1009.73,-78.9904 1015.08,-69.4168 1015.08,-69.4168"/>
<polygon fill="black" stroke="black" points="1053.29,-41.0512 1064,-38.7044 1057.31,-38.0711 1061.32,-35.091 1061.32,-35.091 1061.32,-35.091 1057.31,-38.0711 1058.64,-31.4776 1053.29,-41.0512 1053.29,-41.0512"/>
</g>
<!-- MetaKey -->
<g id="node21" class="node"><title>MetaKey</title>
<ellipse fill="none" stroke="black" cx="822" cy="-180" rx="44.271" ry="18"/>
<text text-anchor="middle" x="822" y="-176.3" font-family="Times,serif" font-size="14.00">MetaKey</text>
</g>
<!-- MetaContext&#45;&gt;MetaKey -->
<g id="edge54" class="edge"><title>MetaContext&#45;&gt;MetaKey</title>
<path fill="none" stroke="black" d="M807.572,-226.166C809.507,-220.108 811.561,-213.68 813.493,-207.63"/>
<polygon fill="black" stroke="black" points="807.494,-226.411 800.164,-234.568 805.972,-231.174 804.451,-235.937 804.451,-235.937 804.451,-235.937 805.972,-231.174 808.737,-237.306 807.494,-226.411 807.494,-226.411"/>
<polygon fill="black" stroke="black" points="813.545,-207.466 820.875,-199.31 815.067,-202.703 816.588,-197.941 816.588,-197.941 816.588,-197.941 815.067,-202.703 812.302,-196.571 813.545,-207.466 813.545,-207.466"/>
</g>
<!-- MetaKeyDefinition -->
<g id="node22" class="node"><title>MetaKeyDefinition</title>
<ellipse fill="none" stroke="black" cx="647" cy="-92" rx="83.2892" ry="18"/>
<text text-anchor="middle" x="647" y="-88.3" font-family="Times,serif" font-size="14.00">MetaKeyDefinition</text>
</g>
<!-- MetaContext&#45;&gt;MetaKeyDefinition -->
<g id="edge52" class="edge"><title>MetaContext&#45;&gt;MetaKeyDefinition</title>
<path fill="none" stroke="black" d="M777.506,-230.375C749.157,-200.534 699.455,-148.216 670.253,-117.477"/>
<ellipse fill="none" stroke="black" cx="780.551" cy="-233.58" rx="4.00002" ry="4.00002"/>
<polygon fill="black" stroke="black" points="670.183,-117.404 666.558,-107.054 666.74,-113.779 663.296,-110.154 663.296,-110.154 663.296,-110.154 666.74,-113.779 660.033,-113.253 670.183,-117.404 670.183,-117.404"/>
</g>
<!-- MetaField -->
<g id="node20" class="node"><title>MetaField</title>
<polygon fill="none" stroke="black" points="1324,-691 1250,-691 1250,-655 1324,-655 1324,-691"/>
<text text-anchor="middle" x="1287" y="-669.3" font-family="Times,serif" font-size="14.00">MetaField</text>
</g>
<!-- MetaKey&#45;&gt;MediaEntry -->
<g id="edge58" class="edge"><title>MetaKey&#45;&gt;MediaEntry</title>
<path fill="none" stroke="black" d="M779.942,-196.381C761.9,-205.177 742.388,-218.093 731,-236 701.312,-282.681 703.597,-350.396 707.833,-387.733"/>
<polygon fill="black" stroke="black" points="780.097,-196.311 791.063,-196.245 784.645,-194.232 789.192,-192.153 789.192,-192.153 789.192,-192.153 784.645,-194.232 787.321,-188.06 780.097,-196.311 780.097,-196.311"/>
<polygon fill="black" stroke="black" points="707.858,-387.931 704.651,-398.418 708.487,-392.892 709.115,-397.852 709.115,-397.852 709.115,-397.852 708.487,-392.892 713.58,-397.286 707.858,-387.931 707.858,-387.931"/>
</g>
<!-- MetaKey&#45;&gt;Meta::Term -->
<g id="edge64" class="edge"><title>MetaKey&#45;&gt;Meta::Term</title>
<path fill="none" stroke="black" d="M856.922,-160.687C884.08,-146.446 921.658,-126.741 949.266,-112.263"/>
<polygon fill="black" stroke="black" points="856.842,-160.729 845.896,-161.388 852.414,-163.051 847.986,-165.373 847.986,-165.373 847.986,-165.373 852.414,-163.051 850.076,-169.358 856.842,-160.729 856.842,-160.729"/>
<polygon fill="black" stroke="black" points="949.36,-112.213 960.306,-111.555 953.789,-109.891 958.217,-107.569 958.217,-107.569 958.217,-107.569 953.789,-109.891 956.127,-103.584 949.36,-112.213 949.36,-112.213"/>
<text text-anchor="middle" x="952.5" y="-132.3" font-family="Times,serif" font-size="14.00">meta_terms</text>
</g>
<!-- MetaKey&#45;&gt;MetaDatum -->
<g id="edge56" class="edge"><title>MetaKey&#45;&gt;MetaDatum</title>
<path fill="none" stroke="black" d="M869.495,-170.346C903.293,-163.886 949.673,-154.408 990,-144 1030.39,-133.577 1075.6,-119.422 1108.47,-108.669"/>
<ellipse fill="none" stroke="black" cx="865.549" cy="-171.094" rx="4.00001" ry="4.00001"/>
<polygon fill="black" stroke="black" points="1108.76,-108.575 1119.67,-109.724 1113.51,-107.012 1118.26,-105.449 1118.26,-105.449 1118.26,-105.449 1113.51,-107.012 1116.85,-101.175 1108.76,-108.575 1108.76,-108.575"/>
</g>
<!-- MetaKey&#45;&gt;MetaKeyDefinition -->
<g id="edge60" class="edge"><title>MetaKey&#45;&gt;MetaKeyDefinition</title>
<path fill="none" stroke="black" d="M787.364,-161.979C758.763,-147.923 718.107,-127.944 687.906,-113.103"/>
<ellipse fill="none" stroke="black" cx="791.066" cy="-163.798" rx="4.00002" ry="4.00002"/>
<polygon fill="black" stroke="black" points="687.869,-113.084 680.879,-104.635 683.382,-110.879 678.894,-108.674 678.894,-108.674 678.894,-108.674 683.382,-110.879 676.909,-112.712 687.869,-113.084 687.869,-113.084"/>
</g>
<!-- MetaKeyMetaTerm -->
<g id="node23" class="node"><title>MetaKeyMetaTerm</title>
<ellipse fill="none" stroke="black" cx="831" cy="-92" rx="83.2892" ry="18"/>
<text text-anchor="middle" x="831" y="-88.3" font-family="Times,serif" font-size="14.00">MetaKeyMetaTerm</text>
</g>
<!-- MetaKey&#45;&gt;MetaKeyMetaTerm -->
<g id="edge62" class="edge"><title>MetaKey&#45;&gt;MetaKeyMetaTerm</title>
<path fill="none" stroke="black" d="M824.642,-153.756C825.74,-143.259 827.018,-131.049 828.139,-120.34"/>
<ellipse fill="none" stroke="black" cx="824.194" cy="-158.031" rx="4" ry="4"/>
<polygon fill="black" stroke="black" points="828.154,-120.196 833.67,-110.718 828.674,-115.223 829.195,-110.25 829.195,-110.25 829.195,-110.25 828.674,-115.223 824.719,-109.781 828.154,-120.196 828.154,-120.196"/>
</g>
<!-- Permission -->
<g id="node24" class="node"><title>Permission</title>
<ellipse fill="none" stroke="black" cx="1394" cy="-673" rx="51.4931" ry="18"/>
<text text-anchor="middle" x="1394" y="-669.3" font-family="Times,serif" font-size="14.00">Permission</text>
</g>
<!-- Person -->
<g id="node25" class="node"><title>Person</title>
<ellipse fill="none" stroke="black" cx="719" cy="-673" rx="36.096" ry="18"/>
<text text-anchor="middle" x="719" y="-669.3" font-family="Times,serif" font-size="14.00">Person</text>
</g>
<!-- Person&#45;&gt;User -->
<g id="edge66" class="edge"><title>Person&#45;&gt;User</title>
<path fill="none" stroke="black" d="M720.65,-646.772C721.76,-629.812 723.217,-607.533 724.331,-590.513"/>
<ellipse fill="none" stroke="black" cx="720.386" cy="-650.817" rx="4" ry="4"/>
<ellipse fill="black" stroke="black" cx="724.617" cy="-586.14" rx="4" ry="4"/>
</g>
<!-- Subject -->
<g id="node28" class="node"><title>Subject</title>
<polygon fill="none" stroke="black" stroke-dasharray="1,5" points="1522.25,-691 1463.75,-691 1463.75,-655 1522.25,-655 1522.25,-691"/>
<text text-anchor="middle" x="1493" y="-669.3" font-family="Times,serif" font-size="14.00">Subject</text>
</g>
<!-- TypeVocabulary -->
<g id="node29" class="node"><title>TypeVocabulary</title>
<ellipse fill="none" stroke="black" cx="1155" cy="-180" rx="73.1654" ry="18"/>
<text text-anchor="middle" x="1155" y="-176.3" font-family="Times,serif" font-size="14.00">TypeVocabulary</text>
</g>
<!-- TypeVocabulary&#45;&gt;MetaDatum -->
<g id="edge70" class="edge"><title>TypeVocabulary&#45;&gt;MetaDatum</title>
<path fill="none" stroke="black" d="M1155,-153.339C1155,-142.855 1155,-130.718 1155,-120.091"/>
<ellipse fill="none" stroke="black" cx="1155" cy="-157.597" rx="4" ry="4"/>
<polygon fill="black" stroke="black" points="1155,-120.084 1159.5,-110.084 1155,-115.084 1155,-110.084 1155,-110.084 1155,-110.084 1155,-115.084 1150.5,-110.084 1155,-120.084 1155,-120.084"/>
</g>
<!-- UploadSession -->
<g id="node30" class="node"><title>UploadSession</title>
<ellipse fill="none" stroke="black" cx="663" cy="-490" rx="66.4165" ry="18"/>
<text text-anchor="middle" x="663" y="-486.3" font-family="Times,serif" font-size="14.00">UploadSession</text>
</g>
<!-- UploadSession&#45;&gt;MediaEntry -->
<g id="edge74" class="edge"><title>UploadSession&#45;&gt;MediaEntry</title>
<path fill="none" stroke="black" d="M679.231,-465.15C684.227,-457.809 689.743,-449.705 694.801,-442.272"/>
<ellipse fill="none" stroke="black" cx="676.863" cy="-468.63" rx="4.00002" ry="4.00002"/>
<polygon fill="black" stroke="black" points="694.845,-442.208 704.191,-436.472 697.658,-438.074 700.471,-433.941 700.471,-433.941 700.471,-433.941 697.658,-438.074 696.751,-431.409 694.845,-442.208 694.845,-442.208"/>
</g>
<!-- UploadSession&#45;&gt;MediaEntryIncomplete -->
<g id="edge72" class="edge"><title>UploadSession&#45;&gt;MediaEntryIncomplete</title>
<path fill="none" stroke="black" d="M590.163,-484.109C555.731,-477.699 517.534,-463.764 496,-434 481.158,-413.485 496.618,-386.741 512.623,-367.563"/>
<ellipse fill="none" stroke="black" cx="594.419" cy="-484.836" rx="4.00001" ry="4.00001"/>
<polygon fill="black" stroke="black" points="512.814,-367.347 522.803,-362.824 516.121,-363.597 519.429,-359.847 519.429,-359.847 519.429,-359.847 516.121,-363.597 516.054,-356.871 512.814,-367.347 512.814,-367.347"/>
<text text-anchor="middle" x="571.5" y="-412.3" font-family="Times,serif" font-size="14.00">incomplete_media_entries</text>
</g>
<!-- UsageTerm -->
<g id="node31" class="node"><title>UsageTerm</title>
<ellipse fill="none" stroke="black" cx="1594" cy="-673" rx="53.4184" ry="18"/>
<text text-anchor="middle" x="1594" y="-669.3" font-family="Times,serif" font-size="14.00">UsageTerm</text>
</g>
<!-- User&#45;&gt;MediaEntry -->
<g id="edge82" class="edge"><title>User&#45;&gt;MediaEntry</title>
<path fill="none" stroke="black" d="M734.395,-536.392C738.968,-518.129 742.807,-493.416 738,-472 735.792,-462.162 731.615,-452.012 727.244,-443.152"/>
<polygon fill="black" stroke="black" points="734.386,-536.422 727.412,-544.884 733.07,-541.245 731.753,-546.069 731.753,-546.069 731.753,-546.069 733.07,-541.245 736.094,-547.254 734.386,-536.422 734.386,-536.422"/>
<polygon fill="black" stroke="black" points="727.152,-442.977 726.496,-432.03 724.831,-438.548 722.51,-434.119 722.51,-434.119 722.51,-434.119 724.831,-438.548 718.524,-436.208 727.152,-442.977 727.152,-442.977"/>
</g>
<!-- User&#45;&gt;MediaResource -->
<g id="edge78" class="edge"><title>User&#45;&gt;MediaResource</title>
<path fill="none" stroke="black" d="M755.197,-579.314C757.801,-580.315 760.426,-581.231 763,-582 814.251,-597.317 834.255,-575.882 882,-600 903.767,-610.996 922.983,-631.049 936.076,-647.205"/>
<ellipse fill="none" stroke="black" cx="751.211" cy="-577.652" rx="4.00001" ry="4.00001"/>
<polygon fill="black" stroke="black" points="936.189,-647.349 938.8,-658 939.267,-651.289 942.346,-655.229 942.346,-655.229 942.346,-655.229 939.267,-651.289 945.892,-652.459 936.189,-647.349 936.189,-647.349"/>
</g>
<!-- User&#45;&gt;MediaResource -->
<g id="edge86" class="edge"><title>User&#45;&gt;MediaResource</title>
<path fill="none" stroke="black" d="M734.461,-591.374C738.5,-600.309 744.199,-609.629 752,-616 787.673,-645.137 837.446,-659.151 878.659,-665.874"/>
<polygon fill="black" stroke="black" points="734.421,-591.274 734.888,-580.318 732.565,-586.631 730.709,-581.988 730.709,-581.988 730.709,-581.988 732.565,-586.631 726.531,-583.658 734.421,-591.274 734.421,-591.274"/>
<polygon fill="black" stroke="black" points="878.779,-665.892 887.991,-671.842 883.722,-666.643 888.666,-667.393 888.666,-667.393 888.666,-667.393 883.722,-666.643 889.341,-662.944 878.779,-665.892 878.779,-665.892"/>
<text text-anchor="middle" x="776.5" y="-604.3" font-family="Times,serif" font-size="14.00">favorites</text>
</g>
<!-- User&#45;&gt;MediaSet -->
<g id="edge84" class="edge"><title>User&#45;&gt;MediaSet</title>
<path fill="none" stroke="black" d="M743.486,-541.022C746.275,-536.856 748.921,-532.414 751,-528 775.719,-475.507 785.368,-407.417 788.976,-370.217"/>
<ellipse fill="none" stroke="black" cx="741.048" cy="-544.46" rx="4.00002" ry="4.00002"/>
<polygon fill="black" stroke="black" points="788.986,-370.109 794.359,-360.55 789.431,-365.129 789.877,-360.149 789.877,-360.149 789.877,-360.149 789.431,-365.129 785.395,-359.748 788.986,-370.109 788.986,-370.109"/>
</g>
<!-- User&#45;&gt;UploadSession -->
<g id="edge80" class="edge"><title>User&#45;&gt;UploadSession</title>
<path fill="none" stroke="black" d="M707.309,-541.639C700.129,-533.433 691.879,-524.005 684.459,-515.525"/>
<ellipse fill="none" stroke="black" cx="710.005" cy="-544.72" rx="4.00002" ry="4.00002"/>
<polygon fill="black" stroke="black" points="684.246,-515.282 681.048,-504.793 680.954,-511.519 677.661,-507.756 677.661,-507.756 677.661,-507.756 680.954,-511.519 674.275,-510.719 684.246,-515.282 684.246,-515.282"/>
</g>
<!-- User&#45;&gt;Userpermission -->
<g id="edge76" class="edge"><title>User&#45;&gt;Userpermission</title>
<path fill="none" stroke="black" d="M755.612,-549.19C758.102,-548.09 760.589,-547.014 763,-546 783.618,-537.326 789.314,-536.511 810,-528 823.637,-522.389 838.391,-516 851.673,-510.128"/>
<ellipse fill="none" stroke="black" cx="751.85" cy="-550.878" rx="4.00002" ry="4.00002"/>
<polygon fill="black" stroke="black" points="851.909,-510.024 862.874,-510.075 856.478,-507.993 861.047,-505.963 861.047,-505.963 861.047,-505.963 856.478,-507.993 859.22,-501.851 851.909,-510.024 851.909,-510.024"/>
</g>
<!-- WikiPage -->
<g id="node34" class="node"><title>WikiPage</title>
<ellipse fill="none" stroke="black" cx="1713" cy="-673" rx="47.169" ry="18"/>
<text text-anchor="middle" x="1713" y="-669.3" font-family="Times,serif" font-size="14.00">WikiPage</text>
</g>
<!-- WikiPageVersion -->
<g id="node35" class="node"><title>WikiPageVersion</title>
<ellipse fill="none" stroke="black" cx="1713" cy="-564" rx="76.5394" ry="18"/>
<text text-anchor="middle" x="1713" y="-560.3" font-family="Times,serif" font-size="14.00">WikiPageVersion</text>
</g>
<!-- WikiPage&#45;&gt;WikiPageVersion -->
<g id="edge88" class="edge"><title>WikiPage&#45;&gt;WikiPageVersion</title>
<path fill="none" stroke="black" d="M1713,-646.772C1713,-630.434 1713,-609.161 1713,-592.408"/>
<ellipse fill="none" stroke="black" cx="1713" cy="-650.809" rx="4" ry="4"/>
<polygon fill="black" stroke="black" points="1713,-592.149 1717.5,-582.149 1713,-587.149 1713,-582.149 1713,-582.149 1713,-582.149 1713,-587.149 1708.5,-582.149 1713,-592.149 1713,-592.149"/>
<text text-anchor="middle" x="1737" y="-604.3" font-family="Times,serif" font-size="14.00">versions</text>
</g>
<!-- Settings -->
<g id="node36" class="node"><title>Settings</title>
<ellipse fill="none" stroke="black" cx="265" cy="-673" rx="39.9464" ry="18"/>
<text text-anchor="middle" x="265" y="-669.3" font-family="Times,serif" font-size="14.00">Settings</text>
</g>
<!-- Settings&#45;&gt;AppSettings -->
<g id="edge2" class="edge"><title>Settings&#45;&gt;AppSettings</title>
<path fill="none" stroke="black" d="M265,-654.809C265,-634.841 265,-602.098 265,-582.149"/>
</g>
</g>
</svg>
